<svg width="83" height="83" viewBox="0 0 83 83" fill="none" xmlns="http://www.w3.org/2000/svg">
<path fill-rule="evenodd" clip-rule="evenodd" d="M60.2891 68.8336C62.5711 68.8336 64.7596 67.9271 66.3732 66.3135C67.9868 64.6999 68.8933 62.5114 68.8933 60.2294C68.8933 57.9475 67.9868 55.759 66.3732 54.1454C64.7596 52.5318 62.5711 51.6253 60.2891 51.6253C58.0072 51.6253 55.8187 52.5318 54.2051 54.1454C52.5915 55.759 51.685 57.9475 51.685 60.2294C51.685 62.5114 52.5915 64.6999 54.2051 66.3135C55.8187 67.9271 58.0072 68.8336 60.2891 68.8336ZM60.2891 72.2753C63.4839 72.2753 66.5478 71.0062 68.8068 68.7471C71.0659 66.4881 72.335 63.4242 72.335 60.2294C72.335 57.0347 71.0659 53.9708 68.8068 51.7117C66.5478 49.4527 63.4839 48.1836 60.2891 48.1836C57.0944 48.1836 54.0305 49.4527 51.7714 51.7117C49.5124 53.9708 48.2433 57.0347 48.2433 60.2294C48.2433 63.4242 49.5124 66.4881 51.7714 68.7471C54.0305 71.0062 57.0944 72.2753 60.2891 72.2753Z" fill="#FFA801"/>
<path fill-rule="evenodd" clip-rule="evenodd" d="M60.2891 54.2065C60.7455 54.2065 61.1832 54.3878 61.5059 54.7106C61.8286 55.0333 62.0099 55.471 62.0099 55.9274V59.517L63.2265 60.7337C63.54 61.0582 63.7135 61.4929 63.7095 61.9441C63.7056 62.3953 63.5246 62.8269 63.2056 63.146C62.8865 63.465 62.4549 63.646 62.0037 63.6499C61.5525 63.6538 61.1178 63.4804 60.7933 63.1669L58.5682 60.9419V55.9274C58.5682 55.471 58.7495 55.0333 59.0723 54.7106C59.395 54.3878 59.8327 54.2065 60.2891 54.2065Z" fill="#FFA801"/>
<path fill-rule="evenodd" clip-rule="evenodd" d="M24.1516 39.5794H20.71V43.021H24.1516V39.5794ZM20.71 36.1377C19.7972 36.1377 18.9218 36.5003 18.2764 37.1457C17.6309 37.7912 17.2683 38.6666 17.2683 39.5794V43.021C17.2683 43.9338 17.6309 44.8092 18.2764 45.4546C18.9218 46.1001 19.7972 46.4627 20.71 46.4627H24.1516C25.0644 46.4627 25.9398 46.1001 26.5853 45.4546C27.2307 44.8092 27.5933 43.9338 27.5933 43.021V39.5794C27.5933 38.6666 27.2307 37.7912 26.5853 37.1457C25.9398 36.5003 25.0644 36.1377 24.1516 36.1377H20.71Z" fill="white"/>
<path fill-rule="evenodd" clip-rule="evenodd" d="M37.9182 39.5794H34.4766V43.021H37.9182V39.5794ZM34.4766 36.1377C33.5638 36.1377 32.6884 36.5003 32.043 37.1457C31.3975 37.7912 31.0349 38.6666 31.0349 39.5794V43.021C31.0349 43.9338 31.3975 44.8092 32.043 45.4546C32.6884 46.1001 33.5638 46.4627 34.4766 46.4627H37.9182C38.831 46.4627 39.7064 46.1001 40.3519 45.4546C40.9973 44.8092 41.3599 43.9338 41.3599 43.021V39.5794C41.3599 38.6666 40.9973 37.7912 40.3519 37.1457C39.7064 36.5003 38.831 36.1377 37.9182 36.1377H34.4766Z" fill="white"/>
<path fill-rule="evenodd" clip-rule="evenodd" d="M51.685 39.5794H48.2433V43.021H51.685V39.5794ZM48.2433 36.1377C47.3305 36.1377 46.4551 36.5003 45.8097 37.1457C45.1642 37.7912 44.8016 38.6666 44.8016 39.5794V43.021C44.8016 43.9338 45.1642 44.8092 45.8097 45.4546C46.4551 46.1001 47.3305 46.4627 48.2433 46.4627H51.685C52.5978 46.4627 53.4732 46.1001 54.1186 45.4546C54.764 44.8092 55.1266 43.9338 55.1266 43.021V39.5794C55.1266 38.6666 54.764 37.7912 54.1186 37.1457C53.4732 36.5003 52.5978 36.1377 51.685 36.1377H48.2433Z" fill="white"/>
<path fill-rule="evenodd" clip-rule="evenodd" d="M24.1516 53.346H20.71V56.7876H24.1516V53.346ZM20.71 49.9043C19.7972 49.9043 18.9218 50.2669 18.2764 50.9123C17.6309 51.5578 17.2683 52.4332 17.2683 53.346V56.7876C17.2683 57.7004 17.6309 58.5758 18.2764 59.2212C18.9218 59.8667 19.7972 60.2293 20.71 60.2293H24.1516C25.0644 60.2293 25.9398 59.8667 26.5853 59.2212C27.2307 58.5758 27.5933 57.7004 27.5933 56.7876V53.346C27.5933 52.4332 27.2307 51.5578 26.5853 50.9123C25.9398 50.2669 25.0644 49.9043 24.1516 49.9043H20.71Z" fill="white"/>
<path fill-rule="evenodd" clip-rule="evenodd" d="M37.9182 53.346H34.4766V56.7876H37.9182V53.346ZM34.4766 49.9043C33.5638 49.9043 32.6884 50.2669 32.043 50.9123C31.3975 51.5578 31.0349 52.4332 31.0349 53.346V56.7876C31.0349 57.7004 31.3975 58.5758 32.043 59.2212C32.6884 59.8667 33.5638 60.2293 34.4766 60.2293H37.9182C38.831 60.2293 39.7064 59.8667 40.3519 59.2212C40.9973 58.5758 41.3599 57.7004 41.3599 56.7876V53.346C41.3599 52.4332 40.9973 51.5578 40.3519 50.9123C39.7064 50.2669 38.831 49.9043 37.9182 49.9043H34.4766Z" fill="white"/>
<path fill-rule="evenodd" clip-rule="evenodd" d="M13.8267 20.6503C13.8267 20.1939 14.008 19.7562 14.3307 19.4335C14.6534 19.1108 15.0911 18.9295 15.5475 18.9295H24.1517V15.4878H15.5475C14.1783 15.4878 12.8652 16.0317 11.8971 16.9999C10.9289 17.968 10.385 19.2811 10.385 20.6503V61.9503C10.385 63.3195 10.9289 64.6326 11.8971 65.6007C12.8652 66.5689 14.1783 67.1128 15.5475 67.1128H50.403C49.6691 66.0617 49.1085 64.8997 48.7424 63.6711H15.5475C15.0911 63.6711 14.6534 63.4898 14.3307 63.1671C14.008 62.8444 13.8267 62.4067 13.8267 61.9503V20.6503ZM58.5683 48.3041C59.7098 48.1408 60.8686 48.1408 62.01 48.3041V20.6503C62.01 19.2811 61.4661 17.968 60.4979 16.9999C59.5298 16.0317 58.2167 15.4878 56.8475 15.4878H51.685V18.9295H56.8475C57.3039 18.9295 57.7416 19.1108 58.0643 19.4335C58.387 19.7562 58.5683 20.1939 58.5683 20.6503V48.3041ZM27.5933 18.9295H45.7705V15.4878H27.5933V18.9295Z" fill="white"/>
<path fill-rule="evenodd" clip-rule="evenodd" d="M62.0099 30.9754H13.8265V27.5337H62.0099V30.9754Z" fill="white"/>
<path d="M20.71 12.046C20.71 11.5896 20.8913 11.1519 21.214 10.8292C21.5367 10.5065 21.9744 10.3252 22.4308 10.3252C22.8872 10.3252 23.3249 10.5065 23.6476 10.8292C23.9703 11.1519 24.1516 11.5896 24.1516 12.046V20.6502C24.1516 21.1066 23.9703 21.5443 23.6476 21.867C23.3249 22.1897 22.8872 22.371 22.4308 22.371C21.9744 22.371 21.5367 22.1897 21.214 21.867C20.8913 21.5443 20.71 21.1066 20.71 20.6502V12.046Z" fill="white"/>
<path d="M44.8016 12.046C44.8016 11.5896 44.9829 11.1519 45.3057 10.8292C45.6284 10.5065 46.0661 10.3252 46.5225 10.3252C46.9789 10.3252 47.4166 10.5065 47.7393 10.8292C48.062 11.1519 48.2433 11.5896 48.2433 12.046V20.6502C48.2433 21.1066 48.062 21.5443 47.7393 21.867C47.4166 22.1897 46.9789 22.371 46.5225 22.371C46.0661 22.371 45.6284 22.1897 45.3057 21.867C44.9829 21.5443 44.8016 21.1066 44.8016 20.6502V12.046Z" fill="white"/>
</svg>
